<svg class="palm-trophy classica" viewBox="0 0 200 240" width="400" height="480" xmlns="http://www.w3.org/2000/svg">
  <defs>
    <linearGradient id="g" x1="0%" y1="0%" x2="100%" y2="0%">
      <stop offset="0%" stop-color="#B8860B"/><stop offset="45%" stop-color="#FFE082"/><stop offset="100%" stop-color="#B8860B"/>
    </linearGradient>
    <radialGradient id="h" cx="35%" cy="30%">
      <stop offset="0%" stop-color="#FFE8AE"/><stop offset="100%" stop-color="#B8860B"/>
    </radialGradient>
  </defs>
  <circle cx="100" cy="20" r="10" fill="url(#h)" stroke="#8B6914" stroke-width="0.6"/>
  <path d="M 78 30 Q 100 24 122 30 L 120 44 L 80 44 Z" fill="url(#g)" stroke="#8B6914" stroke-width="0.6"/>
  <path d="M 70 44 L 130 44 L 132 56 Q 132 116 100 134 Q 68 116 68 56 Z" fill="url(#g)" stroke="#8B6914" stroke-width="0.6"/>
  <path d="M 70 58 Q 38 60 38 88 Q 38 104 60 98" fill="none" stroke="url(#g)" stroke-width="7" stroke-linecap="round"/>
  <path d="M 130 58 Q 162 60 162 88 Q 162 104 140 98" fill="none" stroke="url(#g)" stroke-width="7" stroke-linecap="round"/>
  <rect x="94" y="134" width="12" height="22" fill="url(#g)" stroke="#8B6914" stroke-width="0.4"/>
  <rect x="76" y="156" width="48" height="14" rx="2" fill="url(#g)" stroke="#8B6914" stroke-width="0.4"/>
  <rect x="58" y="170" width="84" height="20" rx="3" fill="url(#g)" stroke="#8B6914" stroke-width="0.4"/>
  <ellipse cx="100" cy="62" rx="18" ry="3" fill="rgba(255,255,255,0.35)"/>
</svg>
