<svg class="palm-trophy konami" viewBox="0 0 200 240" width="400" height="480" xmlns="http://www.w3.org/2000/svg">
  <defs>
    <radialGradient id="ball" cx="32%" cy="28%">
      <stop offset="0%" stop-color="#FFEAB0"/><stop offset="55%" stop-color="#F1C232"/><stop offset="100%" stop-color="#6B5210"/>
    </radialGradient>
    <linearGradient id="ped" x1="0%" x2="100%">
      <stop offset="0%" stop-color="#5A5A5A"/><stop offset="50%" stop-color="#E0E0E0"/><stop offset="100%" stop-color="#5A5A5A"/>
    </linearGradient>
  </defs>
  <circle cx="100" cy="80" r="55" fill="url(#ball)" stroke="#5C420F" stroke-width="0.6"/>
  <g fill="none" stroke="#5C420F" stroke-width="1.6" opacity="0.55">
    <polygon points="100,38 117,48 117,68 100,78 83,68 83,48"/>
    <polygon points="100,78 117,68 130,82 124,102 107,108 100,98"/>
    <polygon points="100,78 83,68 70,82 76,102 93,108 100,98"/>
    <polygon points="70,82 53,90 50,108 60,120 76,116 76,102"/>
    <polygon points="130,82 147,90 150,108 140,120 124,116 124,102"/>
    <polygon points="100,98 107,108 100,124 93,108"/>
  </g>
  <ellipse cx="80" cy="58" rx="14" ry="8" fill="rgba(255,255,255,0.45)"/>
  <path d="M 78 140 L 100 130 L 122 140 L 116 188 L 84 188 Z" fill="url(#ped)" stroke="#3A3A3A" stroke-width="0.6"/>
  <line x1="92" y1="138" x2="89" y2="186" stroke="#3A3A3A" stroke-width="1" opacity="0.5"/>
  <line x1="100" y1="135" x2="100" y2="188" stroke="#3A3A3A" stroke-width="1" opacity="0.5"/>
  <line x1="108" y1="138" x2="111" y2="186" stroke="#3A3A3A" stroke-width="1" opacity="0.5"/>
  <ellipse cx="100" cy="200" rx="58" ry="9" fill="url(#ped)" stroke="#3A3A3A" stroke-width="0.6"/>
  <ellipse cx="100" cy="198" rx="58" ry="4" fill="#F0F0F0"/>
</svg>
