<svg class="palm-trophy barroca" viewBox="0 0 200 240" width="400" height="480" xmlns="http://www.w3.org/2000/svg">
  <defs>
    <linearGradient id="sil" x1="0%" y1="0%" x2="100%" y2="0%">
      <stop offset="0%" stop-color="#8A8792"/><stop offset="28%" stop-color="#F6F2F8"/><stop offset="50%" stop-color="#CFC7D6"/><stop offset="72%" stop-color="#F0EAF4"/><stop offset="100%" stop-color="#7C7984"/>
    </linearGradient>
    <linearGradient id="wood" x1="0%" y1="0%" x2="100%" y2="0%">
      <stop offset="0%" stop-color="#2E1B10"/><stop offset="50%" stop-color="#6B4630"/><stop offset="100%" stop-color="#231009"/>
    </linearGradient>
  </defs>
  <!-- Boca acampanada -->
  <ellipse cx="100" cy="20" rx="26" ry="6" fill="url(#sil)" stroke="#5A5762" stroke-width="0.5"/>
  <ellipse cx="100" cy="20" rx="18" ry="3.2" fill="#9A97A4" opacity="0.6"/>
  <path d="M 74 20 Q 100 13 126 20 L 122 32 Q 100 26 78 32 Z" fill="url(#sil)" stroke="#5A5762" stroke-width="0.5"/>
  <!-- Banda decorativa con relieve -->
  <path d="M 78 32 L 122 32 L 120 46 L 80 46 Z" fill="url(#sil)" stroke="#5A5762" stroke-width="0.5"/>
  <path d="M 84 39 q 4 -4.5 8 0 q 4 4.5 8 0 q 4 -4.5 8 0 q 4 4.5 8 0" fill="none" stroke="#7C7984" stroke-width="1.2" opacity="0.55"/>
  <!-- Cuerpo bulboso alargado (ánfora Copa América) -->
  <path d="M 80 46 L 120 46 Q 142 66 138 100 Q 134 130 116 144 Q 108 150 100 150 Q 92 150 84 144 Q 66 130 62 100 Q 58 66 80 46 Z" fill="url(#sil)" stroke="#5A5762" stroke-width="0.6"/>
  <!-- Estrías verticales -->
  <g fill="none" stroke="#A6A2AE" stroke-width="0.8" opacity="0.5">
    <path d="M 86 80 Q 80 116 96 146"/>
    <path d="M 100 82 L 100 148"/>
    <path d="M 114 80 Q 120 116 104 146"/>
    <path d="M 74 76 Q 68 104 84 134"/>
    <path d="M 126 76 Q 132 104 116 134"/>
  </g>
  <ellipse cx="86" cy="82" rx="9" ry="24" fill="rgba(255,255,255,0.32)"/>
  <!-- Cuello inferior y pie -->
  <path d="M 92 150 L 108 150 L 106 160 L 94 160 Z" fill="url(#sil)" stroke="#5A5762" stroke-width="0.5"/>
  <ellipse cx="100" cy="161" rx="16" ry="3.5" fill="url(#sil)" stroke="#5A5762" stroke-width="0.4"/>
  <!-- Base escalonada de madera con plaquitas -->
  <ellipse cx="100" cy="164" rx="30" ry="4.5" fill="url(#wood)"/>
  <rect x="70" y="164" width="60" height="8" rx="1" fill="url(#wood)"/>
  <rect x="64" y="172" width="72" height="9" rx="1" fill="url(#wood)"/>
  <rect x="58" y="181" width="84" height="10" rx="1" fill="url(#wood)"/>
  <ellipse cx="100" cy="191" rx="42" ry="4.5" fill="#1C0D06"/>
  <!-- Plaquitas doradas -->
  <ellipse cx="74" cy="168" rx="3.4" ry="2.1" fill="#D8B24A" stroke="#7A5E18" stroke-width="0.3"/>
  <ellipse cx="88" cy="168" rx="3.4" ry="2.1" fill="#D8B24A" stroke="#7A5E18" stroke-width="0.3"/>
  <ellipse cx="102" cy="168" rx="3.4" ry="2.1" fill="#D8B24A" stroke="#7A5E18" stroke-width="0.3"/>
  <ellipse cx="116" cy="168" rx="3.4" ry="2.1" fill="#D8B24A" stroke="#7A5E18" stroke-width="0.3"/>
  <ellipse cx="126" cy="168" rx="3.4" ry="2.1" fill="#D8B24A" stroke="#7A5E18" stroke-width="0.3"/>
  <ellipse cx="68" cy="176.5" rx="3.4" ry="2.1" fill="#D8B24A" stroke="#7A5E18" stroke-width="0.3"/>
  <ellipse cx="82" cy="176.5" rx="3.4" ry="2.1" fill="#D8B24A" stroke="#7A5E18" stroke-width="0.3"/>
  <ellipse cx="96" cy="176.5" rx="3.4" ry="2.1" fill="#D8B24A" stroke="#7A5E18" stroke-width="0.3"/>
  <ellipse cx="110" cy="176.5" rx="3.4" ry="2.1" fill="#D8B24A" stroke="#7A5E18" stroke-width="0.3"/>
  <ellipse cx="124" cy="176.5" rx="3.4" ry="2.1" fill="#D8B24A" stroke="#7A5E18" stroke-width="0.3"/>
  <ellipse cx="134" cy="176.5" rx="3.4" ry="2.1" fill="#D8B24A" stroke="#7A5E18" stroke-width="0.3"/>
  <ellipse cx="64" cy="186" rx="3.4" ry="2.1" fill="#D8B24A" stroke="#7A5E18" stroke-width="0.3"/>
  <ellipse cx="78" cy="186" rx="3.4" ry="2.1" fill="#D8B24A" stroke="#7A5E18" stroke-width="0.3"/>
  <ellipse cx="92" cy="186" rx="3.4" ry="2.1" fill="#D8B24A" stroke="#7A5E18" stroke-width="0.3"/>
  <ellipse cx="106" cy="186" rx="3.4" ry="2.1" fill="#D8B24A" stroke="#7A5E18" stroke-width="0.3"/>
  <ellipse cx="120" cy="186" rx="3.4" ry="2.1" fill="#D8B24A" stroke="#7A5E18" stroke-width="0.3"/>
  <ellipse cx="134" cy="186" rx="3.4" ry="2.1" fill="#D8B24A" stroke="#7A5E18" stroke-width="0.3"/>
  <ellipse cx="140" cy="186" rx="3.4" ry="2.1" fill="#D8B24A" stroke="#7A5E18" stroke-width="0.3"/>
</svg>
